<?xml version="1.0" encoding="utf-8"?>
<!-- Generator: Adobe Illustrator 16.0.0, SVG Export Plug-In . SVG Version: 6.00 Build 0)  -->
<!DOCTYPE svg PUBLIC "-//W3C//DTD SVG 1.1//EN" "http://www.w3.org/Graphics/SVG/1.1/DTD/svg11.dtd">
<svg version="1.1" id="Layer_1" xmlns="http://www.w3.org/2000/svg" xmlns:xlink="http://www.w3.org/1999/xlink" x="0px" y="0px"
	 width="612px" height="842px" viewBox="0 0 612 842" enable-background="new 0 0 612 842" xml:space="preserve">
<rect x="144.667" y="128.087" display="none" stroke="#FFFFFF" stroke-miterlimit="10" width="298.667" height="211.579"/>
<g display="none">
	<defs>
		
			<rect id="SVGID_1_" x="1.417" y="0.417" transform="matrix(-0.9994 0.0349 -0.0349 -0.9994 629.3555 831.8481)" width="612.001" height="841.999"/>
	</defs>
	<clipPath id="SVGID_2_" display="inline">
		<use xlink:href="#SVGID_1_"  display="none" overflow="visible"/>
	</clipPath>
</g>
<rect x="215.901" y="146" display="none" fill="none" stroke="#FF0000" stroke-miterlimit="10" width="180.332" height="120.333"/>
<path fill="none" stroke="#FF0000" stroke-miterlimit="10" d="M408.703,175.41c-1.464-16.324-2.157-27.432-6.056-34.293
	c-2.15-6.119-9.898-7.375-9.898-7.375s0,0-14.948-1.772c-12.977-1.538-35.522-4.54-71.734-3.752
	c-36.212-0.787-58.759,2.214-71.734,3.752c-14.948,1.772-14.948,1.772-14.948,1.772s-7.748,1.256-9.899,7.375
	c-3.898,6.861-4.591,17.969-6.056,34.293c-1.578,17.532-4.64,57.744-4.43,86.626c-0.014,1.497-0.015,2.919-0.002,4.249
	c0.171,17.23,4.294,24.666,10.874,28.577c4.946,3.166,11.682,4.767,20.416,6.813c17.517,4.102,46.533,6.919,66.473,7.735
	c2.601,0.143,4.987,0.229,7.065,0.242c0.714,0.004,1.468,0.002,2.241-0.003c0.772,0.005,1.527,0.008,2.241,0.003
	c2.077-0.013,4.464-0.099,7.064-0.242c19.94-0.816,48.957-3.633,66.474-7.735c8.735-2.045,15.472-3.647,20.418-6.814
	c6.577-3.911,10.7-11.347,10.872-28.576c0.014-1.341,0.012-2.777-0.002-4.289C413.341,233.117,410.28,192.934,408.703,175.41z"/>
<g>
	<path fill="#FFFFFF" d="M334.746,281.147c1.637,0.03,1.486-0.075,7.709,0.083c0,0,0.416-0.062,0.354,0.751s0.25,1.521-0.875,1.521
		s-0.834-0.428-1.678-0.428s-4.563-0.063-4.563-0.063s-1.531-0.563-1.781-0.844S333.043,281.116,334.746,281.147z"/>
	<path fill="#FFFFFF" d="M335.121,284.144c0,1.212-1.334,1.212-1.875,1.212c-0.543,0-1.959,0-1.959-1.167s1.959-1.167,1.959-1.167
		S335.121,283.022,335.121,284.144z"/>
	<path fill="#FFFFFF" d="M320.861,284.538c0-1.167,1.959-1.167,1.959-1.167s1.875,0,1.875,1.122c0,1.212-1.334,1.212-1.875,1.212
		C322.277,285.705,320.861,285.705,320.861,284.538z"/>
	<path fill="#FFFFFF" d="M330.537,281.417c0,0-0.094,2.438,0.188,3.688s2.781,1.25,3.156,0.844s1.719-0.5,1.781,0.094
		c0.063,1.063-0.75,0.938-1.188,1.031s-2.219,0.375-2.688,1.063s0.311,3.503,0.473,4.041c0.309,1.019-1.316,1.584-1.645,0.615
		c-0.219-0.649-3.547-9.906-3.516-11.375C328.662,280.136,330.537,281.417,330.537,281.417z"/>
	<path fill="#FFFFFF" d="M317.037,281.313h8.875c0,0-0.01,2.655,0.709,3.438c0.479,0.521,1.008,2.083-0.125,2.32
		c-2.355,0.492-2.188-0.986-1.584-1.715c0.512-0.618,0.563-2.167-0.979-2.501c-1.543-0.334-3.979-0.209-3.813,1.083
		s1.9,4.948,2.01,5.792c0.154,1.198,0.596,3.141-1.27,3.141c-1.215,0-1.084-1.244-1.168-1.953c-0.082-0.709,0.301-3.021-2.656-7.146
		C317.037,281.313,317.037,281.313,317.037,281.313z"/>
	<path fill="#FFFFFF" d="M310.045,282.006c0.238,0.668,1.475,5.859,1.516,6.234c0.043,0.375,0.547,2.313,1.016,2.688
		c0.416,0.333,1.063,0.656,1.125,1.313c0.033,0.336-0.012,0.922-0.633,0.922c-1.061,0-2.291,0.249-2.813,0.239
		c-0.303-0.005-0.314-0.523-0.406-0.953c-0.344-1.607-0.691-5.775-1.383-8.251c-0.26-0.936-0.676-1.715-0.695-2.03
		C307.689,280.757,309.732,281.131,310.045,282.006z"/>
	<path fill="#FFFFFF" d="M312.311,282.167c-0.082-1.41,1.961-1.036,2.273-0.161c0.238,0.668,1.475,5.859,1.516,6.234
		c0.043,0.375,0.547,2.313,1.016,2.688c0.416,0.333,1.063,0.656,1.125,1.313c0.033,0.336-0.012,0.922-0.633,0.922
		c-1.061,0-2.291,0.249-2.813,0.239c-0.303-0.005-0.314-0.523-0.406-0.953c-0.344-1.607-0.691-5.775-1.383-8.251
		C312.746,283.262,312.33,282.483,312.311,282.167z"/>
	<path fill="#FFFFFF" d="M298.476,290.23c0,0,0.406-4.406,0.094-6.719c-0.031-0.563,0.563-0.875,1.219-0.719
		s3.344,0.469,4.469,0.219s1.406,0.625,1.406,0.781s-0.313,1.031-1.313,0.875s-0.844-0.406-1.219-0.406s-2.063-0.166-2.063,0.276
		s0.219,0.567,0.813,0.567s1.281,0.125,1.875-0.156s1.469,0.074,1.406,0.756c0,0-0.125,0.922-1.094,0.692s-2.969-0.521-3.25,0
		s-1.094,2.083,0.125,3.208s1.25,1.781,0.406,1.813s-2.875,0.188-3.281,0S297.911,290.636,298.476,290.23z"/>
	<path fill="#FFFFFF" d="M288.954,286.231l3.707,0.25l3.25-0.25c2.541,0,0,1.791,0,1.791s-5.082,0.084-7.291,0
		C286.579,286.188,288.954,286.231,288.954,286.231z"/>
	<path fill="#FFFFFF" d="M269.745,286.231l3.709,0.25l3.25-0.25c2.541,0,0,1.791,0,1.791s-5.084,0.084-7.291,0
		C267.372,286.188,269.745,286.231,269.745,286.231z"/>
	<path fill="#FFFFFF" d="M279.536,285.439c0,0,0.125-0.167,0.543-0.167c0,0,2.828-0.5,1.582,1.667l2.875-0.042
		c0,0-0.084-1.59,0.75-1.628s0.918,0.374,0.918,1.876s0,2.502,0,2.502s0.875,0.084,0.791,0.917s-0.834,0.931-1.416,0.944
		c-0.584,0.014-1.668,0.055-1.668-0.611s0.502-0.642,0.625-2.838h-3.291v1.172c0,0,1.168,0.583,1,1.458
		c-0.166,0.875-1.25,0.806-2.125,0.819s-1.875-0.194-0.916-2.194C279.454,288.689,279.536,285.439,279.536,285.439z"/>
	<path fill="#FFFFFF" d="M285.976,282.511c-0.344,0.156-3.281,0-3.281,0c-3.482,0.127-3.75,0.063-3.719-0.61
		s0.906-0.588,0.906-0.588s6.406-0.208,6.844,0S286.319,282.355,285.976,282.511z"/>
	<path fill="#FFFFFF" d="M278.974,283.699c0.752-0.375,4.846,0.5,6.439-0.125c0,0,1.496-0.156,1.436,0.625s-1.342,0.156-2.154,0.625
		s-2.156,0.313-3.094,0s-1.285-0.563-2.627-0.125C278.601,284.824,278.222,284.074,278.974,283.699z"/>
	<path fill="#FFFFFF" d="M338.371,286.668c0,0-0.373-2.536,0.291-2.521c0,0,0.799-0.088,1.375,0.813
		c0.332,0.521,0.334,1.771,0.334,1.771h2.291c0,0,0.744,0.592,0.1,1.903c-0.789,0.009-1.641-0.027-1.641-0.027s0,2.416,1.541,2.791
		c1.543,0.375,0.822,1.555-0.291,1.709c-1.096,0.151-1.959,0.084-2.875,0l-0.459-4.521l-2.875,0.021c0,0-0.625-1.328-0.084-1.911
		C336.828,286.671,338.371,286.668,338.371,286.668z"/>
</g>
</svg>
